<?xml version="1.0" encoding="utf-8"?>
<!-- Generator: Adobe Illustrator 24.0.1, SVG Export Plug-In . SVG Version: 6.00 Build 0)  -->
<svg version="1.1" id="Capa_1" xmlns="http://www.w3.org/2000/svg" xmlns:xlink="http://www.w3.org/1999/xlink" x="0px" y="0px"
	 viewBox="0 0 36.6 24.6" style="enable-background:new 0 0 36.6 24.6;" xml:space="preserve">
<style type="text/css">
	.st0{fill:#E42492;}
	.st1{fill:none;}
</style>
<g id="ico_cart" transform="translate(-1369.24 34.6)">
	<g id="Trazado_66">
		<path class="st0" d="M1400.6-17.8h-18.5c-0.2,0-0.4-0.1-0.5-0.4l-7-15.3h-4.7c-0.3,0-0.6-0.3-0.6-0.6s0.3-0.6,0.6-0.6h5.1
			c0.2,0,0.4,0.1,0.5,0.4l7,15.3h17.7l4.3-12.5c0.1-0.3,0.4-0.5,0.8-0.4c0.3,0.1,0.5,0.4,0.4,0.8l-4.4,12.9
			C1401.1-17.9,1400.9-17.8,1400.6-17.8z"/>
	</g>
	<g id="Elipse_5" transform="translate(1383.072 -16.194)">
		<g>
			<circle class="st1" cx="3.1" cy="3.1" r="3.1"/>
		</g>
		<g>
			<path class="st0" d="M3.1,6.2C1.4,6.2,0,4.8,0,3.1S1.4,0,3.1,0s3.1,1.4,3.1,3.1S4.8,6.2,3.1,6.2z M3.1,1.2c-1,0-1.9,0.9-1.9,1.9
				S2.1,5,3.1,5S5,4.1,5,3.1S4.1,1.2,3.1,1.2z"/>
		</g>
	</g>
	<g id="Elipse_6" transform="translate(1393.504 -16.194)">
		<g>
			<circle class="st1" cx="3.1" cy="3.1" r="3.1"/>
		</g>
		<g>
			<path class="st0" d="M3.1,6.2C1.4,6.2,0,4.8,0,3.1S1.4,0,3.1,0s3.1,1.4,3.1,3.1S4.8,6.2,3.1,6.2z M3.1,1.2c-1,0-1.9,0.9-1.9,1.9
				S2.1,5,3.1,5S5,4.1,5,3.1S4.1,1.2,3.1,1.2z"/>
		</g>
	</g>
</g>
</svg>
