<svg id="ico_tel" xmlns="http://www.w3.org/2000/svg" width="24.219" height="24.232" viewBox="0 0 24.219 24.232">
  <path id="Trazado_89" data-name="Trazado 89" d="M19.372,24.232a15.03,15.03,0,0,1-6.785-1.809,24.863,24.863,0,0,1-6.208-4.577,25.038,25.038,0,0,1-4.574-6.211A15.093,15.093,0,0,1,0,4.846C0,3.454,1.3,2.11,1.851,1.6A5.518,5.518,0,0,1,4.829,0a2.751,2.751,0,0,1,1.68.938A15.82,15.82,0,0,1,8.185,2.81c.35.451,2.1,2.75,2.1,3.856,0,.906-1.025,1.536-2.107,2.2a12.465,12.465,0,0,0-1.165.773c-.336.269-.4.409-.4.441a16.045,16.045,0,0,0,7.53,7.53c.024-.007.168-.063.441-.4a11.407,11.407,0,0,0,.773-1.165c.665-1.085,1.295-2.107,2.2-2.107,1.1,0,3.4,1.746,3.856,2.1a16.4,16.4,0,0,1,1.872,1.676,2.751,2.751,0,0,1,.938,1.68,5.548,5.548,0,0,1-1.6,2.985c-.514.56-1.858,1.862-3.247,1.858ZM4.825,1.211A4.56,4.56,0,0,0,2.677,2.488,3.922,3.922,0,0,0,1.214,4.843c0,8.153,10.015,18.175,18.158,18.175a3.9,3.9,0,0,0,2.355-1.47,4.609,4.609,0,0,0,1.281-2.159c-.038-.231-.675-1.127-2.421-2.467a9.454,9.454,0,0,0-3.027-1.781c-.021.007-.157.059-.434.406a13.329,13.329,0,0,0-.742,1.123c-.679,1.1-1.319,2.149-2.25,2.149a1.139,1.139,0,0,1-.441-.087A17.163,17.163,0,0,1,5.48,10.519c-.154-.381-.178-.98.574-1.662A10.539,10.539,0,0,1,7.541,7.824a13.329,13.329,0,0,0,1.123-.742c.35-.276.4-.409.406-.434A9.454,9.454,0,0,0,7.289,3.622C5.945,1.879,5.049,1.242,4.822,1.2Z" fill="#4a81a1"/>
</svg>
