<?xml version="1.0" encoding="utf-8"?>
<!-- Generator: Adobe Illustrator 24.0.1, SVG Export Plug-In . SVG Version: 6.00 Build 0)  -->
<svg version="1.1" id="Capa_1" xmlns="http://www.w3.org/2000/svg" xmlns:xlink="http://www.w3.org/1999/xlink" x="0px" y="0px"
	 viewBox="0 0 20.9 24.2" style="enable-background:new 0 0 20.9 24.2;" xml:space="preserve">
<style type="text/css">
	.st0{fill:#4A81A1;}
</style>
<g id="ico_user" transform="translate(-365.4 -148.9)">
	<g id="Trazado_67">
		<path class="st0" d="M385.7,173.1c-0.3,0-0.6-0.3-0.6-0.6c0-3.5-2-6.7-5-8.2c-2.6,1.6-5.8,1.6-8.4,0c-3.1,1.6-5,4.8-5,8.2
			c0,0.3-0.3,0.6-0.6,0.6l0,0c-0.3,0-0.6-0.3-0.6-0.6c0-4,2.4-7.7,6-9.5l0.3-0.1l0.3,0.2c2.3,1.5,5.4,1.5,7.7,0l0.3-0.2l0.3,0.1
			c3.7,1.7,6,5.4,6,9.5C386.3,172.8,386,173.1,385.7,173.1L385.7,173.1z"/>
	</g>
	<g id="Elipse_9">
		<path class="st0" d="M375.9,165.4c-4.6,0-8.3-3.7-8.3-8.3c0-4.6,3.7-8.3,8.3-8.3s8.3,3.7,8.3,8.3
			C384.1,161.7,380.4,165.4,375.9,165.4z M375.9,150.1c-3.9,0-7.1,3.2-7.1,7.1c0,3.9,3.2,7.1,7.1,7.1c3.9,0,7.1-3.2,7.1-7.1
			C382.9,153.3,379.8,150.1,375.9,150.1z"/>
	</g>
</g>
</svg>
